<?xml version="1.0" encoding="UTF-8"?>
<svg width="32px" height="32px" viewBox="0 0 32 32" version="1.1" xmlns="http://www.w3.org/2000/svg" xmlns:xlink="http://www.w3.org/1999/xlink">
    <g stroke="none" stroke-width="1" fill="none" fill-rule="evenodd">
        <g transform="translate(-1152.000000, -336.000000)" fill="#FFFFFF">
            <g transform="translate(1152.000000, 336.000000)">
                <path d="M16,32 C7.163444,32 0,24.836556 0,16 C0,7.163444 7.163444,0 16,0 C24.836556,0 32,7.163444 32,16 C32,24.836556 24.836556,32 16,32 Z M18.5857864,16 L13.2928932,21.2928932 C12.9023689,21.6834175 12.9023689,22.3165825 13.2928932,22.7071068 C13.6834175,23.0976311 14.3165825,23.0976311 14.7071068,22.7071068 L20.7071068,16.7071068 C21.0976311,16.3165825 21.0976311,15.6834175 20.7071068,15.2928932 L14.7071068,9.29289322 C14.3165825,8.90236893 13.6834175,8.90236893 13.2928932,9.29289322 C12.9023689,9.68341751 12.9023689,10.3165825 13.2928932,10.7071068 L18.5857864,16 Z"></path>
            </g>
        </g>
    </g>
</svg>
