<svg height="800" width="800" xmlns="http://www.w3.org/2000/svg" viewBox="0 0 511.801 511.801" xml:space="preserve"><path d="M263.535 248.453a10.623 10.623 0 0 0-15.04 0L3.054 493.787c-4.053 4.267-3.947 10.987.213 15.04a10.763 10.763 0 0 0 14.827 0l237.867-237.76 237.76 237.76c4.267 4.053 10.987 3.947 15.04-.213a10.763 10.763 0 0 0 0-14.827L263.535 248.453z"/><path d="m18.201 263.493 237.76-237.76 237.76 237.76c4.267 4.053 10.987 3.947 15.04-.213a10.763 10.763 0 0 0 0-14.827L263.535 3.12a10.623 10.623 0 0 0-15.04 0L3.054 248.453c-4.053 4.267-3.947 10.987.213 15.04 4.267 4.054 10.774 4.054 14.934 0z"/></svg>